<mxfile host="app.diagrams.net" agent="Mozilla/5.0 (Windows NT 10.0; Win64; x64) AppleWebKit/537.36 (KHTML, like Gecko) Chrome/130.0.0.0 Safari/537.36" version="24.8.3">
  <diagram name="PÃ¡gina-1" id="ngjUF8qBWLI5nmZINgEI">
    <mxGraphModel dx="2583" dy="1874" grid="1" gridSize="10" guides="1" tooltips="1" connect="1" arrows="1" fold="1" page="1" pageScale="1" pageWidth="827" pageHeight="1169" math="0" shadow="0">
      <root>
        <mxCell id="0" />
        <mxCell id="1" parent="0" />
        <mxCell id="mx8LPNXvoEOanYcqVod7-2" value="vuelos" style="rounded=1;whiteSpace=wrap;html=1;" vertex="1" parent="1">
          <mxGeometry x="800" y="-240" width="100" height="40" as="geometry" />
        </mxCell>
        <mxCell id="mx8LPNXvoEOanYcqVod7-3" value="aeropuerto" style="rounded=1;whiteSpace=wrap;html=1;" vertex="1" parent="1">
          <mxGeometry x="140" y="-240" width="100" height="40" as="geometry" />
        </mxCell>
        <mxCell id="mx8LPNXvoEOanYcqVod7-4" value="pasajeros" style="rounded=1;whiteSpace=wrap;html=1;" vertex="1" parent="1">
          <mxGeometry x="650" y="-6" width="100" height="40" as="geometry" />
        </mxCell>
        <mxCell id="mx8LPNXvoEOanYcqVod7-5" value="reserva" style="rounded=1;whiteSpace=wrap;html=1;" vertex="1" parent="1">
          <mxGeometry x="1010" y="-16" width="100" height="40" as="geometry" />
        </mxCell>
        <mxCell id="mx8LPNXvoEOanYcqVod7-6" value="aerolineas" style="rounded=1;whiteSpace=wrap;html=1;" vertex="1" parent="1">
          <mxGeometry x="1090" y="-236" width="100" height="40" as="geometry" />
        </mxCell>
        <mxCell id="mx8LPNXvoEOanYcqVod7-7" value="puerta_embarque" style="rounded=1;whiteSpace=wrap;html=1;" vertex="1" parent="1">
          <mxGeometry x="140" y="-386" width="100" height="40" as="geometry" />
        </mxCell>
        <mxCell id="mx8LPNXvoEOanYcqVod7-8" value="personal_vuelo" style="rounded=1;whiteSpace=wrap;html=1;" vertex="1" parent="1">
          <mxGeometry x="1210" y="-236" width="100" height="40" as="geometry" />
        </mxCell>
        <mxCell id="mx8LPNXvoEOanYcqVod7-9" value="personal_tierra" style="rounded=1;whiteSpace=wrap;html=1;" vertex="1" parent="1">
          <mxGeometry x="50" y="-30" width="100" height="40" as="geometry" />
        </mxCell>
        <mxCell id="mx8LPNXvoEOanYcqVod7-10" value="seguridad" style="rounded=1;whiteSpace=wrap;html=1;" vertex="1" parent="1">
          <mxGeometry x="1097" y="-116" width="100" height="40" as="geometry" />
        </mxCell>
        <mxCell id="mx8LPNXvoEOanYcqVod7-11" value="carga" style="rounded=1;whiteSpace=wrap;html=1;" vertex="1" parent="1">
          <mxGeometry x="830" y="4" width="100" height="40" as="geometry" />
        </mxCell>
        <mxCell id="mx8LPNXvoEOanYcqVod7-13" value="vehiculos" style="rounded=1;whiteSpace=wrap;html=1;" vertex="1" parent="1">
          <mxGeometry x="-110" y="-116" width="100" height="40" as="geometry" />
        </mxCell>
        <mxCell id="mx8LPNXvoEOanYcqVod7-14" value="comercios" style="rounded=1;whiteSpace=wrap;html=1;" vertex="1" parent="1">
          <mxGeometry x="-120" y="-250" width="100" height="40" as="geometry" />
        </mxCell>
        <mxCell id="mx8LPNXvoEOanYcqVod7-15" value="mantenimiento" style="rounded=1;whiteSpace=wrap;html=1;" vertex="1" parent="1">
          <mxGeometry x="330" y="160" width="100" height="40" as="geometry" />
        </mxCell>
        <mxCell id="mx8LPNXvoEOanYcqVod7-16" value="salas_vip" style="rounded=1;whiteSpace=wrap;html=1;" vertex="1" parent="1">
          <mxGeometry x="-60" y="-360" width="100" height="40" as="geometry" />
        </mxCell>
        <mxCell id="mx8LPNXvoEOanYcqVod7-17" value="aduanas" style="rounded=1;whiteSpace=wrap;html=1;" vertex="1" parent="1">
          <mxGeometry x="470" y="-210" width="100" height="40" as="geometry" />
        </mxCell>
        <mxCell id="mx8LPNXvoEOanYcqVod7-18" value="migracion" style="rounded=1;whiteSpace=wrap;html=1;" vertex="1" parent="1">
          <mxGeometry x="490" y="-44" width="100" height="40" as="geometry" />
        </mxCell>
        <mxCell id="mx8LPNXvoEOanYcqVod7-19" value="check-in" style="rounded=1;whiteSpace=wrap;html=1;" vertex="1" parent="1">
          <mxGeometry x="820" y="-446" width="100" height="40" as="geometry" />
        </mxCell>
        <mxCell id="mx8LPNXvoEOanYcqVod7-22" value="auditorias" style="rounded=1;whiteSpace=wrap;html=1;" vertex="1" parent="1">
          <mxGeometry x="280" y="-550" width="100" height="40" as="geometry" />
        </mxCell>
        <mxCell id="mx8LPNXvoEOanYcqVod7-23" value="estado_mantenimiento" style="rounded=1;whiteSpace=wrap;html=1;" vertex="1" parent="1">
          <mxGeometry x="660" y="160" width="100" height="40" as="geometry" />
        </mxCell>
        <mxCell id="mx8LPNXvoEOanYcqVod7-25" value="estado_vehiculo" style="rounded=1;whiteSpace=wrap;html=1;" vertex="1" parent="1">
          <mxGeometry x="-110" y="-10" width="100" height="40" as="geometry" />
        </mxCell>
        <mxCell id="mx8LPNXvoEOanYcqVod7-26" value="tipo_vehiculo" style="rounded=1;whiteSpace=wrap;html=1;" vertex="1" parent="1">
          <mxGeometry x="-110" y="-60" width="100" height="40" as="geometry" />
        </mxCell>
        <mxCell id="mx8LPNXvoEOanYcqVod7-28" value="aeronaves" style="rounded=1;whiteSpace=wrap;html=1;" vertex="1" parent="1">
          <mxGeometry x="1050" y="-346" width="100" height="40" as="geometry" />
        </mxCell>
        <mxCell id="mx8LPNXvoEOanYcqVod7-29" value="estado_vuelo" style="rounded=1;whiteSpace=wrap;html=1;" vertex="1" parent="1">
          <mxGeometry x="620" y="-446" width="100" height="40" as="geometry" />
        </mxCell>
        <mxCell id="mx8LPNXvoEOanYcqVod7-30" value="ubicacion" style="rounded=1;whiteSpace=wrap;html=1;" vertex="1" parent="1">
          <mxGeometry x="240" y="-50" width="100" height="40" as="geometry" />
        </mxCell>
        <mxCell id="mx8LPNXvoEOanYcqVod7-31" value="nacionalidad" style="rounded=1;whiteSpace=wrap;html=1;" vertex="1" parent="1">
          <mxGeometry x="650" y="44" width="100" height="40" as="geometry" />
        </mxCell>
        <mxCell id="mx8LPNXvoEOanYcqVod7-32" value="clase_reserva" style="rounded=1;whiteSpace=wrap;html=1;" vertex="1" parent="1">
          <mxGeometry x="1010" y="34" width="100" height="40" as="geometry" />
        </mxCell>
        <mxCell id="mx8LPNXvoEOanYcqVod7-33" value="estado_reserva" style="rounded=1;whiteSpace=wrap;html=1;" vertex="1" parent="1">
          <mxGeometry x="1010" y="84" width="100" height="40" as="geometry" />
        </mxCell>
        <mxCell id="mx8LPNXvoEOanYcqVod7-34" value="posicion" style="rounded=1;whiteSpace=wrap;html=1;" vertex="1" parent="1">
          <mxGeometry x="1330" y="-236" width="100" height="40" as="geometry" />
        </mxCell>
        <mxCell id="mx8LPNXvoEOanYcqVod7-35" value="departamento" style="rounded=1;whiteSpace=wrap;html=1;" vertex="1" parent="1">
          <mxGeometry x="50" y="24" width="100" height="40" as="geometry" />
        </mxCell>
        <mxCell id="mx8LPNXvoEOanYcqVod7-36" value="estado_incidente" style="rounded=1;whiteSpace=wrap;html=1;" vertex="1" parent="1">
          <mxGeometry x="1210" y="-116" width="100" height="40" as="geometry" />
        </mxCell>
        <mxCell id="mx8LPNXvoEOanYcqVod7-38" value="tipo_carga" style="rounded=1;whiteSpace=wrap;html=1;" vertex="1" parent="1">
          <mxGeometry x="830" y="54" width="100" height="40" as="geometry" />
        </mxCell>
        <mxCell id="mx8LPNXvoEOanYcqVod7-39" value="estado_operacion" style="rounded=1;whiteSpace=wrap;html=1;" vertex="1" parent="1">
          <mxGeometry x="830" y="104" width="100" height="40" as="geometry" />
        </mxCell>
        <mxCell id="mx8LPNXvoEOanYcqVod7-40" value="tipo_comercio" style="rounded=1;whiteSpace=wrap;html=1;" vertex="1" parent="1">
          <mxGeometry x="-230" y="-250" width="100" height="40" as="geometry" />
        </mxCell>
        <mxCell id="mx8LPNXvoEOanYcqVod7-41" value="estado_sala" style="rounded=1;whiteSpace=wrap;html=1;" vertex="1" parent="1">
          <mxGeometry x="-60" y="-410" width="100" height="40" as="geometry" />
        </mxCell>
        <mxCell id="mx8LPNXvoEOanYcqVod7-42" value="estado_revision" style="rounded=1;whiteSpace=wrap;html=1;" vertex="1" parent="1">
          <mxGeometry x="470" y="-156" width="100" height="40" as="geometry" />
        </mxCell>
        <mxCell id="mx8LPNXvoEOanYcqVod7-43" value="tipo_migracion" style="rounded=1;whiteSpace=wrap;html=1;" vertex="1" parent="1">
          <mxGeometry x="490" y="10" width="100" height="40" as="geometry" />
        </mxCell>
        <mxCell id="mx8LPNXvoEOanYcqVod7-44" value="estado_proceso" style="rounded=1;whiteSpace=wrap;html=1;" vertex="1" parent="1">
          <mxGeometry x="490" y="70" width="100" height="40" as="geometry" />
        </mxCell>
        <mxCell id="mx8LPNXvoEOanYcqVod7-45" value="tipo_checkin" style="rounded=1;whiteSpace=wrap;html=1;" vertex="1" parent="1">
          <mxGeometry x="820" y="-510" width="100" height="40" as="geometry" />
        </mxCell>
        <mxCell id="mx8LPNXvoEOanYcqVod7-46" value="estado_checkin" style="rounded=1;whiteSpace=wrap;html=1;" vertex="1" parent="1">
          <mxGeometry x="820" y="-570" width="100" height="40" as="geometry" />
        </mxCell>
        <mxCell id="mx8LPNXvoEOanYcqVod7-48" value="estado" style="rounded=1;whiteSpace=wrap;html=1;" vertex="1" parent="1">
          <mxGeometry x="500" y="-550" width="100" height="40" as="geometry" />
        </mxCell>
        <mxCell id="mx8LPNXvoEOanYcqVod7-49" value="estado_auditoria" style="rounded=1;whiteSpace=wrap;html=1;" vertex="1" parent="1">
          <mxGeometry x="390" y="-550" width="100" height="40" as="geometry" />
        </mxCell>
        <mxCell id="mx8LPNXvoEOanYcqVod7-50" value="frecuencia" style="rounded=1;whiteSpace=wrap;html=1;" vertex="1" parent="1">
          <mxGeometry x="550" y="160" width="100" height="40" as="geometry" />
        </mxCell>
        <mxCell id="mx8LPNXvoEOanYcqVod7-51" value="tipo_mantenimiento" style="rounded=1;whiteSpace=wrap;html=1;" vertex="1" parent="1">
          <mxGeometry x="440" y="160" width="100" height="40" as="geometry" />
        </mxCell>
        <mxCell id="mx8LPNXvoEOanYcqVod7-56" value="historial_demoras" style="rounded=1;whiteSpace=wrap;html=1;" vertex="1" parent="1">
          <mxGeometry x="440" y="-320" width="100" height="40" as="geometry" />
        </mxCell>
        <mxCell id="mx8LPNXvoEOanYcqVod7-57" value="causa_demora" style="rounded=1;whiteSpace=wrap;html=1;" vertex="1" parent="1">
          <mxGeometry x="440" y="-370" width="100" height="40" as="geometry" />
        </mxCell>
        <mxCell id="mx8LPNXvoEOanYcqVod7-71" value="estado_puerta" style="rounded=1;whiteSpace=wrap;html=1;" vertex="1" parent="1">
          <mxGeometry x="140" y="-436" width="100" height="40" as="geometry" />
        </mxCell>
        <mxCell id="mx8LPNXvoEOanYcqVod7-72" value="turno" style="rounded=1;whiteSpace=wrap;html=1;" vertex="1" parent="1">
          <mxGeometry x="50" y="74" width="100" height="40" as="geometry" />
        </mxCell>
        <mxCell id="mx8LPNXvoEOanYcqVod7-75" value="tipo_aeronave" style="rounded=1;whiteSpace=wrap;html=1;" vertex="1" parent="1">
          <mxGeometry x="1050" y="-406" width="100" height="40" as="geometry" />
        </mxCell>
        <mxCell id="mx8LPNXvoEOanYcqVod7-76" value="estado_aeronave" style="rounded=1;whiteSpace=wrap;html=1;" vertex="1" parent="1">
          <mxGeometry x="1050" y="-460" width="100" height="40" as="geometry" />
        </mxCell>
      </root>
    </mxGraphModel>
  </diagram>
</mxfile>
